:SAMPLES-PER-SECOND 30
:FULLY-SPECIFIED
:DEGREES
456
root  -29.1971 14.712 -7.47365 -100.085 61.9722 -62.926
Spine  1.04574 -8.08921 19.1395
Spine1  -1.99849 -25.1475 17.7074
Neck  3.97569e-016 0 -2.38542e-015
Head  -14.6089 8.31999 51.6799
R_Clavicle  0.496274 -18.7674 4.44587
R_UpperArm  13.6521 -61.2075 84.628
R_Forearm  -39.7317 4.90111 -9.54502
R_Hand  -59.7023 57.8137 -107.677
L_Clavicle  -0.499427 25.1993 2.66899
L_UpperArm  -2.86396 22.9503 64.5583
L_Forearm  -5.29253 11.5808 2.23158
L_Hand  0.487103 -19.0895 -1.51636
L_Thigh  9.19181 31.9076 66.3229
L_Calf  -19.2787 -5.56779 48.9652
L_Foot  7.38073 12.2082 13.8177
L_Toe0  0.505307 0.0375449 -6.13589
R_Thigh  24.5737 -52.0764 1.40888
R_Calf  -3.8823 5.59672 17.518
R_Foot  -10.0186 -28.7421 3.88572
R_Toe0  -1.78853 -0.272787 -17.3235
457
root  -26.9301 15.1725 -8.0547 -133.23 65.5583 -82.5585
Spine  1.83905 -7.84898 18.4891
Spine1  -2.16072 -30.0671 17.551
Neck  3.97569e-016 0 -2.38542e-015
Head  -16.6372 7.24363 52.0076
R_Clavicle  0.579203 -14.7364 4.42667
R_UpperArm  21.2417 -65.6797 75.764
R_Forearm  -37.9728 3.53265 -6.31587
R_Hand  -73.852 53.6427 -127.503
L_Clavicle  -0.509019 20.4554 1.82468
L_UpperArm  -3.98728 17.8085 45.1577
L_Forearm  -38.0977 19.2744 24.9325
L_Hand  1.00046 6.33471 7.25116
L_Thigh  8.90408 32.4173 67.1853
L_Calf  -19.9297 -6.50349 50.9476
L_Foot  7.28437 13.2414 12.4282
L_Toe0  0.505307 0.0375345 -6.13589
R_Thigh  27.5144 -49.3758 2.12144
R_Calf  4.76103 5.94588 18.649
R_Foot  -21.1823 -43.6579 16.5349
R_Toe0  -1.78853 -0.272787 -17.3235
458
root  -24.6416 15.942 -9.12435 -171.045 64.8053 -108.213
Spine  1.79775 -9.52798 16.6957
Spine1  -1.83683 -31.758 16.5292
Neck  3.97569e-016 0 -2.38542e-015
Head  -17.8785 7.75066 51.3535
R_Clavicle  0.679385 -9.89055 4.45195
R_UpperArm  31.7512 -68.8363 66.5341
R_Forearm  -29.2933 2.67977 -3.11639
R_Hand  -78.0878 43.3282 -142.389
L_Clavicle  -0.423418 14.2835 1.19223
L_UpperArm  -15.2737 19.0554 44.5944
L_Forearm  -40.2249 5.19922 6.02197
L_Hand  0.094813 5.58788 1.18347
L_Thigh  8.66128 33.4684 66.5779
L_Calf  -21.1371 -7.21413 52.2718
L_Foot  6.92386 14.0831 10.5184
L_Toe0  0.505306 0.0375237 -6.13589
R_Thigh  25.6852 -48.9001 6.59243
R_Calf  3.81184 5.36623 16.7102
R_Foot  -13.6406 -29.5125 11.6096
R_Toe0  -1.78853 -0.272787 -17.3235
459
root  -22.6203 17.0274 -11.0572 157.231 59.6487 -128.658
Spine  1.03376 -11.5224 14.5597
Spine1  -1.47054 -30.1645 15.201
Neck  3.97569e-016 0 -2.38542e-015
Head  -18.5231 7.38709 49.7382
R_Clavicle  0.809436 -4.39705 4.59181
R_UpperArm  49.522 -69.2308 50.9344
R_Forearm  -15.2051 -0.00753721 1.78707
R_Hand  -67.0276 29.8982 -148.008
L_Clavicle  -0.248232 8.28421 0.213177
L_UpperArm  -31.0599 21.2491 41.3736
L_Forearm  -37.807 -3.71248 -4.3094
L_Hand  -0.323844 4.46652 -3.50101
L_Thigh  8.09054 34.4061 64.8489
L_Calf  -21.4307 -7.57562 51.9473
L_Foot  6.68143 14.642 9.2817
L_Toe0  0.505306 0.0375126 -6.13589
R_Thigh  21.7268 -48.6122 10.4458
R_Calf  -9.04263 4.93603 15.3192
R_Foot  1.271 3.16575 0.0310948
R_Toe0  -1.78853 -0.272787 -17.3235
460
root  -21.2931 18.4435 -13.3545 133.229 52.6539 -141.384
Spine  0.755417 -11.9075 12.4394
Spine1  -0.98383 -27.7151 13.8524
Neck  3.97569e-016 0 -2.38542e-015
Head  -20.108 6.47902 49.0456
R_Clavicle  0.948377 1.61626 4.66495
R_UpperArm  70.4317 -66.6229 33.8714
R_Forearm  0.227066 -2.3879 7.07543
R_Hand  -48.6042 18.2596 -147.998
L_Clavicle  -0.0528228 3.69248 -0.42696
L_UpperArm  -46.6953 21.8284 37.4246
L_Forearm  -27.0865 -12.0528 -14.2885
L_Hand  -0.248221 0.334562 -4.75626
L_Thigh  7.21009 36.1294 61.9319
L_Calf  -20.9861 -7.85954 51.5758
L_Foot  6.58165 15.144 8.53155
L_Toe0  0.505305 0.0375012 -6.1359
R_Thigh  19.9292 -46.6626 11.0215
R_Calf  -14.7039 5.70557 17.8435
R_Foot  6.54763 21.8955 0.247084
R_Toe0  -1.78853 -0.272787 -17.3235
461
root  -20.6354 20.1245 -15.7703 114.02 44.6185 -149.099
Spine  1.31255 -10.0118 11.2211
Spine1  -0.261138 -26.7752 12.5384
Neck  3.97569e-016 0 -2.38542e-015
Head  -24.3705 8.20635 48.8047
R_Clavicle  0.962031 7.46657 4.18367
R_UpperArm  89.5127 -64.7039 22.3614
R_Forearm  20.8229 -1.55499 9.29952
R_Hand  -26.808 6.72909 -145.467
L_Clavicle  -0.00859396 0.730806 -0.0712574
L_UpperArm  -56.6677 17.534 30.3435
L_Forearm  -13.8988 -20.7809 -26.0039
L_Hand  -0.193634 -2.41883 -7.3318
L_Thigh  6.17912 37.8722 57.3771
L_Calf  -21.0348 -7.8863 51.4511
L_Foot  6.25994 14.9356 7.78562
L_Toe0  0.505305 0.0374894 -6.13589
R_Thigh  17.7158 -44.2132 12.3271
R_Calf  -9.45386 6.13033 19.2926
R_Foot  4.50465 15.1955 0.406632
R_Toe0  -1.78853 -0.272787 -17.3235
462
root  -20.4515 22.0811 -17.9607 98.5735 35.7597 -152.811
Spine  1.97028 -7.61589 11.2574
Spine1  0.512194 -27.3603 9.8531
Neck  3.97569e-016 0 -2.38542e-015
Head  -30.6981 12.5435 47.2301
R_Clavicle  0.930678 10.7155 3.97547
R_UpperArm  106.286 -62.3607 18.7059
R_Forearm  40.6317 -0.372591 6.9893
R_Hand  -7.61372 -3.12626 -140.075
L_Clavicle  0.0168108 -1.7678 0.175217
L_UpperArm  -56.4294 9.39133 18.6734
L_Forearm  0.423028 -25.4689 -33.3807
L_Hand  -0.10737 -4.52841 -11.7446
L_Thigh  4.50091 38.742 51.6703
L_Calf  -21.5849 -8.10164 51.7337
L_Foot  5.32902 14.5407 5.39705
L_Toe0  0.505304 0.0374774 -6.13589
R_Thigh  13.4833 -44.0208 15.7471
R_Calf  -3.05255 6.07375 19.1194
R_Foot  2.96629 10.1825 1.2969
R_Toe0  -1.78853 -0.272787 -17.3235
463
root  -20.7346 24.2375 -19.9104 84.4519 26.9645 -155.458
Spine  1.7019 -6.2185 11.8467
Spine1  1.07783 -26.4194 5.04765
Neck  3.97569e-016 0 -2.38542e-015
Head  -36.7776 15.9988 44.4869
R_Clavicle  0.746194 11.4197 3.24646
R_UpperArm  111.377 -55.964 25.4471
R_Forearm  46.385 -0.2293 1.13267
R_Hand  -2.04264 -6.2705 -134.942
L_Clavicle  0.352977 -4.18374 -1.34733
L_UpperArm  -44.6889 2.86454 6.11034
L_Forearm  13.8851 -23.1383 -29.5827
L_Hand  0.547269 -9.4749 -15.3271
L_Thigh  2.68919 39.2834 46.8701
L_Calf  -20.5717 -8.50732 52.2433
L_Foot  3.66311 14.2512 0.580836
L_Toe0  0.505304 0.0374651 -6.1359
R_Thigh  9.68783 -44.9648 18.1241
R_Calf  -4.09474 6.51097 20.5606
R_Foot  3.38611 11.6056 3.97014
R_Toe0  -1.78853 -0.272787 -17.3235
464
root  -21.5375 26.3237 -21.4421 70.3152 18.0085 -158.951
Spine  -0.0248413 -6.80447 12.4819
Spine1  0.903638 -20.0249 -1.17936
Neck  3.97569e-016 0 -2.38542e-015
Head  -39.5255 16.0776 41.1668
R_Clavicle  0.521993 13.4436 2.4699
R_UpperArm  108.904 -43.2765 29.8946
R_Forearm  40.4496 2.82111 -2.49705
R_Hand  -6.53677 -3.00878 -130.382
L_Clavicle  0.967128 -4.56447 -4.67926
L_UpperArm  -33.8407 -0.151697 -1.89775
L_Forearm  13.1681 -13.082 -15.5811
L_Hand  1.0184 -11.5739 -18.2123
L_Thigh  1.34828 41.1387 43.6521
L_Calf  -17.8598 -8.52487 52.8795
L_Foot  1.12946 13.0755 -6.62434
L_Toe0  0.505303 0.0374525 -6.1359
R_Thigh  7.31769 -44.4007 18.3649
R_Calf  -3.97997 7.21728 22.9476
R_Foot  3.04742 10.6482 5.60909
R_Toe0  -1.78853 -0.272787 -17.3235
465
root  -22.6362 28.296 -22.3839 56.8279 8.01828 -162.368
Spine  -2.90972 -9.21781 13.5607
Spine1  -0.922186 -8.34229 -7.22131
Neck  3.97569e-016 0 -2.38542e-015
Head  -36.2017 12.0673 36.8965
R_Clavicle  0.52851 14.4105 2.47272
R_UpperArm  106.104 -20.655 27.6724
R_Forearm  31.6549 3.70378 -3.10987
R_Hand  -11.8229 1.31577 -125.336
L_Clavicle  1.05545 -0.854179 -6.98202
L_UpperArm  -32.5481 -5.32208 -6.80937
L_Forearm  -2.93989 1.80428 2.07386
L_Hand  0.258925 -7.2349 -17.3722
L_Thigh  0.401654 44.2222 41.5318
L_Calf  -16.8492 -8.59195 53.4629
L_Foot  -1.45203 11.7946 -14.5394
L_Toe0  0.505302 0.0374396 -6.1359
R_Thigh  5.17743 -43.1204 18.2221
R_Calf  -0.214663 7.72088 24.6894
R_Foot  2.2222 8.27829 5.29677
R_Toe0  -1.78853 -0.272787 -17.3235
466
root  -23.7111 30.2169 -22.6626 44.1182 -3.08511 -163.674
Spine  -5.6032 -10.6219 14.7496
Spine1  -3.9613 2.20946 -12.4036
Neck  3.97569e-016 0 -2.38542e-015
Head  -28.0735 7.46273 31.8122
R_Clavicle  0.916907 11.8111 3.70712
R_UpperArm  100.136 8.91193 19.1165
R_Forearm  26.0575 -1.85968 1.42806
R_Hand  -13.5304 3.30403 -121.805
L_Clavicle  0.808527 2.64343 -7.43421
L_UpperArm  -34.485 -15.1017 -11.2221
L_Forearm  -15.5731 15.9286 19.2104
L_Hand  -0.0791805 -4.79688 -13.4838
L_Thigh  -0.346957 47.2514 39.7437
L_Calf  -20.1013 -9.28159 53.9922
L_Foot  -3.00406 11.4992 -19.8648
L_Toe0  0.505302 0.0374263 -6.1359
R_Thigh  2.73254 -43.5875 19.754
R_Calf  1.62383 8.25079 26.5388
R_Foot  1.57001 6.60507 6.49495
R_Toe0  -1.78853 -0.272787 -17.3235
467
root  -24.5776 32.0229 -22.2962 30.6187 -14.1453 -161.74
Spine  -6.60817 -8.30798 15.466
Spine1  -6.39293 6.03598 -17.9884
Neck  3.97569e-016 0 -2.38542e-015
Head  -19.1511 5.9423 27.2882
R_Clavicle  1.35283 9.13355 5.67588
R_UpperArm  89.288 30.3904 4.20721
R_Forearm  20.4659 -8.012 7.42823
R_Hand  -16.2419 5.91995 -120.394
L_Clavicle  0.760652 2.85404 -7.21593
L_UpperArm  -35.4975 -26.3726 -14.9528
L_Forearm  -23.3477 24.9091 32.5762
L_Hand  -0.340894 -2.02131 -12.0992
L_Thigh  -1.45885 49.035 36.6755
L_Calf  -24.2511 -9.96313 54.5936
L_Foot  -2.78991 9.91564 -18.5532
L_Toe0  0.505301 0.0374128 -6.1359
R_Thigh  -0.882267 -46.0274 24.4029
R_Calf  3.94379 8.80387 28.5029
R_Foot  0.417501 3.82122 8.62722
R_Toe0  -1.78853 -0.272787 -17.3235
468
root  -25.0129 33.5033 -21.3128 14.9731 -23.541 -156.878
Spine  -5.34983 -3.17895 16.5884
Spine1  -6.83764 4.26795 -24.9478
Neck  3.97569e-016 0 -2.38542e-015
Head  -11.8413 6.95678 24.15
R_Clavicle  1.01377 10.4552 4.13467
R_UpperArm  76.0041 37.7938 -8.76908
R_Forearm  20.8683 -7.67125 11.1235
R_Hand  -19.0711 8.63668 -119.506
L_Clavicle  0.736306 0.795239 -5.66198
L_UpperArm  -34.506 -35.8163 -19.4496
L_Forearm  -32.9073 26.4062 37.5049
L_Hand  -0.0604398 -2.54032 -13.9324
L_Thigh  -3.8142 48.8014 31.1215
L_Calf  -22.8977 -9.94344 55.0163
L_Foot  -1.53251 4.85589 -11.2498
L_Toe0  0.5053 0.0373991 -6.1359
R_Thigh  -6.9113 -49.6444 32.3668
R_Calf  8.44755 8.69354 28.1018
R_Foot  -0.119984 2.26159 8.07512
R_Toe0  -1.78853 -0.272787 -17.3235
469
root  -24.6956 34.3956 -20.0313 -2.80176 -30.7499 -150.318
Spine  -1.81223 3.19266 17.909
Spine1  -4.59867 -0.395861 -31.2625
Neck  3.97569e-016 0 -2.38542e-015
Head  -6.69807 7.67344 21.5474
R_Clavicle  0.984746 12.6716 4.05536
R_UpperArm  64.602 40.9175 -16.3683
R_Forearm  29.3328 -6.02795 11.759
R_Hand  -18.8169 8.38639 -119.762
L_Clavicle  0.291448 -1.91259 -1.50801
L_UpperArm  -33.1403 -38.9378 -19.6842
L_Forearm  -53.8947 15.0624 23.9976
L_Hand  3.28061 -25.3773 -28.8815
L_Thigh  -7.04569 46.9302 24.4642
L_Calf  -16.7724 -9.90244 54.4147
L_Foot  -0.93703 0.172352 -5.0292
L_Toe0  0.5053 0.037385 -6.1359
R_Thigh  -14.6641 -53.8805 42.063
R_Calf  9.7586 7.36909 23.4379
R_Foot  0.153742 2.5639 6.39896
R_Toe0  -1.78853 -0.272787 -17.3235
